<?xml version="1.0" standalone="no"?>
<!DOCTYPE svg PUBLIC "-//W3C//DTD SVG 20010904//EN"
 "http://www.w3.org/TR/2001/REC-SVG-20010904/DTD/svg10.dtd">
<svg version="1.0" xmlns="http://www.w3.org/2000/svg"
 width="769.000000pt" height="589.000000pt" viewBox="0 0 769.000000 589.000000"
 preserveAspectRatio="xMidYMid meet">
<metadata>
Created by potrace 1.16, written by Peter Selinger 2001-2019
</metadata>
<g transform="translate(0.000000,589.000000) scale(0.100000,-0.100000)"
fill="#000000" stroke="none">
<path d="M970 5369 c-118 -42 -226 -144 -271 -256 l-24 -58 0 -2135 0 -2135
24 -58 c46 -114 154 -215 275 -257 60 -20 71 -20 2916 -20 2791 0 2858 0 2913
19 121 42 220 131 275 248 l27 58 0 2145 0 2145 -27 58 c-55 117 -154 206
-275 248 -55 19 -121 19 -2917 18 -2809 -1 -2862 -1 -2916 -20z m285 -378 c88
-50 108 -190 38 -263 -76 -80 -177 -78 -250 5 -123 140 50 350 212 258z m5447
-8 c39 -27 78 -93 78 -134 0 -66 -41 -133 -102 -165 -35 -18 -111 -18 -147 0
-47 25 -89 81 -96 130 -23 150 141 254 267 169z m-575 -303 c66 -23 157 -78
210 -128 48 -45 109 -144 135 -220 44 -128 27 -296 -44 -436 -32 -63 -117
-159 -166 -189 l-30 -17 -4 247 c-4 272 -3 270 -71 357 -95 120 -310 114 -404
-12 -55 -73 -63 -119 -63 -364 l0 -219 -45 31 c-63 43 -147 153 -178 231 -33
83 -51 196 -42 266 29 234 204 422 440 473 61 14 193 3 262 -20z m-2899 -126
c129 -20 239 -48 337 -85 544 -208 920 -650 1047 -1231 19 -89 22 -132 22
-318 0 -186 -3 -229 -22 -318 -75 -344 -238 -642 -473 -867 -321 -307 -713
-465 -1151 -465 -443 0 -831 159 -1157 474 -174 169 -316 387 -391 599 -69
197 -100 376 -100 577 0 454 173 867 491 1176 177 171 372 294 594 377 237 88
558 121 803 81z m2822 -332 c32 -31 39 -47 45 -92 3 -30 5 -469 3 -975 -3
-903 -3 -921 -23 -954 -14 -24 -111 -102 -300 -241 -280 -206 -280 -206 -286
-248 -3 -23 -14 -55 -26 -70 -23 -32 -523 -328 -569 -337 -22 -5 -46 -1 -77
13 -39 17 -52 32 -107 123 -74 122 -86 176 -52 231 12 18 31 39 44 47 13 8
131 77 263 154 256 149 306 168 355 134 21 -14 32 -7 258 157 l237 172 5 914
c4 697 8 920 17 936 27 48 72 74 125 74 45 0 54 -4 88 -38z m-4812 -3066 c142
-74 126 -284 -26 -326 -78 -21 -176 35 -203 117 -35 106 50 221 164 223 21 0
50 -6 65 -14z m5429 3 c42 -15 92 -68 103 -109 15 -52 12 -79 -10 -125 -53
-109 -193 -133 -275 -47 -66 67 -71 162 -12 229 51 58 125 78 194 52z"/>
<path d="M2791 3895 c-100 -23 -159 -44 -253 -92 -246 -126 -421 -337 -505
-610 -25 -82 -27 -100 -27 -273 0 -173 2 -191 27 -273 103 -334 349 -580 683
-684 84 -26 100 -27 274 -27 173 0 191 2 274 28 339 103 589 358 688 701 20
70 23 102 23 255 0 153 -3 185 -23 255 -99 343 -351 600 -688 701 -76 23 -111
27 -249 30 -115 3 -178 0 -224 -11z m366 -465 c66 -23 157 -78 210 -128 18
-17 51 -58 73 -93 132 -205 111 -466 -53 -646 -109 -119 -240 -178 -397 -178
-117 0 -201 26 -300 94 -83 56 -140 122 -185 216 -153 318 45 689 405 759 51
10 186 -4 247 -24z"/>
</g>
</svg>
